<!DOCTYPE svg PUBLIC "-//W3C//DTD SVG 1.1//EN" "http://www.w3.org/Graphics/SVG/1.1/DTD/svg11.dtd">
<!-- Uploaded to: SVG Repo, www.svgrepo.com, Transformed by: SVG Repo Mixer Tools -->
<svg fill="#000000" width="64px" height="64px" viewBox="0 0 24 24" xmlns="http://www.w3.org/2000/svg">
<g id="SVGRepo_bgCarrier" stroke-width="0"/>
<g id="SVGRepo_tracerCarrier" stroke-linecap="round" stroke-linejoin="round"/>
<g id="SVGRepo_iconCarrier">
<path d="M9.5,7H15a1,1,0,0,1,.949.684l2,6a1,1,0,0,1-1.9.632L14.5,9.662V22a1,1,0,0,1-2,0V16h-1v6a1,1,0,0,1-2,0V9.662L7.949,14.316a1,1,0,0,1-1.9-.632l2-6A1,1,0,0,1,9,7Zm0-3.5A2.5,2.5,0,1,0,12,1,2.5,2.5,0,0,0,9.5,3.5Z"/>
</g>
</svg>